<svg width="80" height="81" viewBox="0 0 80 81" fill="none" xmlns="http://www.w3.org/2000/svg">
<g clip-path="url(#clip0)">
<path d="M25.5775 51.4591H26.355C26.355 51.4591 26.355 54.572 26.355 56.1471C26.355 57.7222 27.2 58.5471 28.755 58.5471H60.5634L69.1155 65.6351V58.5471H76.0451C77.6001 58.5471 78.4451 57.7222 78.4451 56.1471C78.4451 47.484 78.4451 33.4199 78.4451 16.8812C78.4451 15.3061 77.6001 14.4439 76.0451 14.4439H28.755C27.2001 14.4439 26.4001 15.2812 26.355 16.8439C26.355 16.8439 26.355 20.7444 26.355 21.5319C26.355 21.5319 26.355 21.5319 26.355 22.3195C25.5775 22.3195 25.5775 22.3195 25.5775 22.3195C24.8001 22.3195 24.8001 22.3195 24.8001 22.3195L24.8 21.5319C24.8 21.5319 24.8001 18.419 24.8001 16.8439C24.8 14.4439 26.355 12.8812 28.6874 12.8812H76.0451C78.4451 12.8812 80.0001 14.4439 80.0001 16.8812C80.0001 33.4199 80.0001 47.5213 80.0001 56.1844C80.0001 58.5471 78.4 60.0812 76.1127 60.1222C73.0029 60.1222 71.4479 60.1222 70.6705 60.1222V65.6351C70.6705 67.2102 69.1155 67.6812 67.5606 66.4227L59.786 60.1222C46.5691 60.1222 36.5296 60.0812 28.755 60.0812C26.4 60.0812 24.8 58.4812 24.8001 56.1844C24.8001 53.8217 24.8001 53.0342 24.8001 51.4591C24.8001 51.4591 24.6802 51.4591 25.5775 51.4591Z" fill="#2557A7"/>
<path d="M40.8 44.8812H68.8V46.4812H39.2L40.8 44.8812Z" fill="#2557A7"/>
<path d="M48 36.0812H68.8V37.6812H48.8L48 36.0812Z" fill="#2557A7"/>
<path d="M39.2 26.4812H68.8V28.0812H41.6L39.2 26.4812Z" fill="#2557A7"/>
<path d="M25.2018 51.4589C16.5387 51.4589 8.66309 45.946 1.57507 36.4954C8.66309 27.0447 16.5387 22.3193 25.2018 22.3193C33.0773 22.3193 40.9529 27.0447 48.0409 36.4954C40.9529 45.946 33.0773 51.4589 25.2018 51.4589ZM25.2018 45.1585C29.1396 45.1585 33.0774 41.2207 33.0774 37.2829C33.0774 32.5576 29.1396 29.4073 25.2018 29.4073C20.4764 29.4073 17.3262 32.5576 17.3262 37.2829C17.3262 41.2207 20.4764 45.1585 25.2018 45.1585Z" fill="#DBE2FD"/>
<path d="M25.2018 53.0341C15.7511 53.0341 7.08801 47.5212 0 36.4954C7.08801 25.4696 15.7511 20.7443 25.2018 20.7443C33.8649 20.7443 42.5281 25.4696 50.4036 36.4954C42.5281 47.5212 33.8649 53.0341 25.2018 53.0341ZM25.2018 51.459C33.0774 51.459 40.953 45.9461 48.041 36.4954C40.953 27.0447 33.0774 22.3194 25.2018 22.3194C16.5387 22.3194 8.66313 27.0447 1.57511 36.4954C8.66313 45.9461 16.5387 51.459 25.2018 51.459Z" fill="#2557A7"/>
<path d="M25.2019 45.1585C20.4765 45.1585 17.3263 41.2207 17.3263 37.2829C17.3263 32.5576 20.4765 29.4073 25.2019 29.4073C29.1396 29.4073 33.0774 32.5576 33.0774 37.2829C33.0774 41.2207 29.1396 45.1585 25.2019 45.1585ZM25.2019 43.5834C28.3521 43.5834 31.5023 40.4331 31.5023 37.2829C31.5023 33.3451 28.3521 30.9825 25.2019 30.9825C21.2641 30.9825 18.9014 33.3451 18.9014 37.2829C18.9014 40.4331 21.2641 43.5834 25.2019 43.5834Z" fill="#2557A7"/>
</g>
<defs>
<clipPath id="clip0">
<rect width="80" height="80" fill="white" transform="translate(0 0.0811768)"/>
</clipPath>
</defs>
</svg>
