<svg width="80" height="81" viewBox="0 0 80 81" fill="none" xmlns="http://www.w3.org/2000/svg">
<g clip-path="url(#clip0)">
<path d="M5.1282 0.675293H74.8718C78.6804 0.675293 80 2.45367 80 5.75637V33.1942C80 37.005 78.5384 38.2753 74.8718 38.2753H5.1282C1.61533 38.2753 -3.08618e-10 37.005 0 33.1942V5.75637C4.27931e-06 2.70773 2.05128 0.675293 5.1282 0.675293ZM5.1282 2.70773C3.1538 2.70773 2.05128 3.978 2.05128 5.75637V33.1942C2.05128 35.4807 2.64098 36.2429 5.1282 36.2429H74.8718C76.9999 36.2429 77.9487 35.4807 77.9487 33.1942V5.75637C77.9487 3.46989 76.9999 2.70773 74.8718 2.70773H5.1282Z" fill="#164081"/>
<path d="M5.44858 3.0752H74.5513C75.5675 3.0752 77.5999 4.09338 77.5999 6.12974V33.6206C77.5999 34.6388 75.5675 36.6752 74.5513 36.6752H5.44858C3.49232 36.6752 2.39993 35.9116 2.39993 33.6206V6.12974C2.39993 4.09338 3.41615 3.0752 5.44858 3.0752ZM20.6918 22.4206L24.7567 24.457L23.7405 20.3843L26.7891 17.3297H22.7243L20.6918 13.257L18.6594 17.3297H14.5945L17.6432 20.3843L16.627 24.457L20.6918 22.4206Z" fill="#DBE2FD"/>
<path d="M20.4 24.0086L14.4 27.0753L15.4 19.9197L10.4 15.8308L17.4 14.8086L20.4 8.67529L23.4 14.8086L30.4 15.8308L25.4 19.9197L26.4 27.0753L20.4 24.0086ZM20.4 21.9642L24.4 24.0086L23.4 19.9197L26.4 16.8531H22.4L20.4 12.7642L18.4 16.8531H14.4L17.4 19.9197L16.4 24.0086L20.4 21.9642Z" fill="#164081"/>
<path d="M5.1282 43.8752H74.8718C77.9487 43.8752 80 45.9676 80 49.106V52.2445C80 55.3829 77.9487 57.4753 74.8718 57.4753H5.1282C2.05128 57.4753 -2.15863e-10 55.3829 0 52.2445V49.106C-1.58946e-06 45.9676 2.05128 43.8752 5.1282 43.8752ZM5.1282 45.9676C3.07692 45.9676 2.05128 47.0137 2.05128 49.106V52.2445C2.05128 53.2906 3.07692 55.3829 5.1282 55.3829H74.8718C76.9999 55.3829 77.9487 54.0753 77.9487 52.2445V49.106C77.9487 47.0137 75.8974 45.9676 74.8718 45.9676H5.1282Z" fill="#164081"/>
<path d="M5.1282 62.2753H74.8718C77.9487 62.2753 80 64.3676 80 67.506V70.6445C80 73.783 77.9487 75.8753 74.8718 75.8753H5.1282C2.05128 75.8753 -2.15863e-10 73.783 0 70.6445V67.506C-1.58946e-06 64.3676 2.05128 62.2753 5.1282 62.2753ZM5.1282 64.3676C3.07692 64.3676 2.05128 65.4137 2.05128 67.506V70.6445C2.05128 71.6907 3.07692 73.783 5.1282 73.783H74.8718C76.9999 73.783 77.9487 72.4753 77.9487 70.6445V67.506C77.9487 65.4137 75.8974 64.3676 74.8718 64.3676H5.1282Z" fill="#164081"/>
</g>
<defs>
<clipPath id="clip0">
<rect width="80" height="80" fill="white" transform="translate(0 0.675293)"/>
</clipPath>
</defs>
</svg>
