<svg width="80" height="81" viewBox="0 0 80 81" fill="none" xmlns="http://www.w3.org/2000/svg">
<g clip-path="url(#clip0)">
<path d="M40.8213 59.6178L32.3947 80.6704L23.968 68.8809L8.79999 72.2494L18.0693 47.8283C13.856 42.7757 11.328 36.0388 11.328 29.302C11.328 13.302 23.968 0.67041 39.9787 0.67041C55.1467 0.67041 68.6293 13.302 68.6293 29.302C68.6293 35.1967 66.1013 41.0915 62.7307 46.1441C62.7307 47.8283 66.1013 56.2494 72 72.2494L56.832 68.8809L48.4053 80.6704L40.8213 59.6178ZM39.9787 56.2494H40.8213C42.5067 60.4599 45.0347 67.1967 48.4053 76.4599L56.832 67.1967L68.6293 68.8809L60.2027 46.1441C64.416 41.0915 66.944 35.1967 66.944 29.302C66.944 14.1441 54.304 2.35462 39.9787 2.35462C24.8107 2.35462 13.0133 14.1441 13.0133 29.302C13.0133 36.0388 15.5413 42.7757 19.7547 46.9862L12.1707 68.8809L23.968 67.1967L32.3947 76.4599L39.9787 56.2494Z" fill="#2557A7"/>
<path d="M40 56.6705C24.7 56.6705 12.8 43.9205 12.8 29.4705C12.8 14.1705 24.7 2.27051 40 2.27051C54.45 2.27051 67.2 14.1705 67.2 29.4705C67.2 43.9205 54.45 56.6705 40 56.6705ZM40 33.7205L45.95 37.1205L44.25 30.3205L49.35 26.0705L42.55 25.2205L40 19.2705L36.6 25.2205L29.8 26.0705L34.9 30.3205L33.2 37.1205L40 33.7205Z" fill="#DBE2FD"/>
<path d="M40 58.2704C23.9059 58.2704 11.2 44.7175 11.2 29.4704C11.2 13.3763 23.9059 0.67041 40 0.67041C55.2471 0.67041 68.8 13.3763 68.8 29.4704C68.8 44.7175 55.2471 58.2704 40 58.2704ZM40 56.5763C54.4 56.5763 67.1059 43.8704 67.1059 29.4704C67.1059 14.2234 54.4 2.36453 40 2.36453C24.753 2.36453 12.8941 14.2234 12.8941 29.4704C12.8941 43.8704 24.753 56.5763 40 56.5763Z" fill="#2557A7"/>
<path d="M40.0258 34.9275L31.5096 39.0704L34.0645 30.7846L26.4 24.9846L35.7677 24.1561L40.0258 15.8704L43.4322 24.1561L52.8 24.9846L45.1354 30.7846L47.6903 39.0704L40.0258 34.9275ZM40.0258 33.2704L45.9871 36.5846L44.2838 29.9561L49.3935 25.8132L42.5806 24.9846L40.0258 19.1846L36.6193 24.9846L29.8064 25.8132L34.9161 29.9561L33.2129 36.5846L40.0258 33.2704Z" fill="#2557A7"/>
</g>
<defs>
<clipPath id="clip0">
<rect width="80" height="80" fill="white" transform="translate(0 0.67041)"/>
</clipPath>
</defs>
</svg>
