<svg width="80" height="81" viewBox="0 0 80 81" fill="none" xmlns="http://www.w3.org/2000/svg">
<g clip-path="url(#clip0)">
<path d="M34.8404 67.826C15.8178 67.826 0.800003 51.8871 0.800003 33.9559C0.800003 15.0285 15.8178 0.0858154 34.8404 0.0858154C52.8618 0.0858154 68.8809 15.0285 68.8809 33.9559C68.8809 42.9215 64.8761 50.8909 58.869 56.868L61.8725 60.8527L64.8761 58.8604L77.8916 71.8107C81.8963 76.7916 75.8892 82.7687 70.8832 78.7839L57.8678 65.8336L59.8702 62.8451L55.8654 59.8565C49.8583 64.8374 42.85 67.826 34.8404 67.826ZM64.8761 60.8527L59.8702 65.8336L71.8844 77.7878C73.8868 78.7839 74.888 78.7839 76.8904 77.7878C77.8916 75.7954 77.8916 74.7992 76.8904 72.8069L64.8761 60.8527ZM34.8404 65.8336C51.8607 65.8336 66.8785 50.8909 66.8785 33.9559C66.8785 16.0247 51.8607 2.07817 34.8404 2.07817C16.819 2.07817 2.80238 16.0247 2.80238 33.9559C2.80238 50.8909 16.819 65.8336 34.8404 65.8336Z" fill="#2557A7"/>
<path d="M34.8 64.0858C17.8 64.0858 4.8 50.0858 4.8 34.0858C4.8 17.0858 17.8 4.08582 34.8 4.08582C50.8 4.08582 64.8 17.0858 64.8 34.0858C64.8 50.0858 50.8 64.0858 34.8 64.0858ZM34.8 62.0858C49.8 62.0858 62.8 49.0858 62.8 34.0858C62.8 18.0858 49.8 6.08582 34.8 6.08582C18.8 6.08582 6.8 18.0858 6.8 34.0858C6.8 49.0858 18.8 62.0858 34.8 62.0858Z" fill="#2557A7"/>
<mask id="mask0" mask-type="alpha" maskUnits="userSpaceOnUse" x="6" y="6" width="57" height="50">
<path d="M16.8189 55.1512C9.81061 50.1452 6.80704 42.1357 6.80704 34.1262C6.80704 18.1072 18.8213 6.0929 34.8403 6.0929C49.8582 6.0929 62.8736 18.1072 62.8736 34.1262C62.8736 42.1357 58.8689 50.1452 51.8606 55.1512C49.8582 48.1428 42.8499 43.1369 34.8403 43.1369C25.8296 43.1369 18.8213 48.1428 16.8189 55.1512ZM34.8403 41.1345C39.8463 41.1345 44.8522 36.1286 44.8522 31.1226C44.8522 25.1155 39.8463 21.1107 34.8403 21.1107C28.8332 21.1107 24.8284 25.1155 24.8284 31.1226C24.8284 36.1286 28.8332 41.1345 34.8403 41.1345Z" fill="white"/>
</mask>
<g mask="url(#mask0)">
<path d="M16.8189 55.1512C9.81061 50.1452 6.80704 42.1357 6.80704 34.1262C6.80704 18.1072 18.8213 6.0929 34.8403 6.0929C49.8582 6.0929 62.8736 18.1072 62.8736 34.1262C62.8736 42.1357 58.8689 50.1452 51.8606 55.1512C49.8582 48.1428 42.8499 43.1369 34.8403 43.1369C25.8296 43.1369 18.8213 48.1428 16.8189 55.1512ZM34.8403 41.1345C39.8463 41.1345 44.8522 36.1286 44.8522 31.1226C44.8522 25.1155 39.8463 21.1107 34.8403 21.1107C28.8332 21.1107 24.8284 25.1155 24.8284 31.1226C24.8284 36.1286 28.8332 41.1345 34.8403 41.1345Z" fill="#DBE2FD"/>
<path d="M28.8332 41.1344C24.8284 39.1321 22.8261 35.1273 22.8261 31.1225C22.8261 24.1142 27.832 19.1083 34.8403 19.1083C40.8475 19.1083 46.8546 24.1142 46.8546 31.1225C46.8546 35.1273 43.851 39.1321 39.8463 41.1344C48.857 44.138 55.8653 52.1475 55.8653 62.1594C55.8653 73.1725 45.8534 83.1844 34.8403 83.1844C22.8261 83.1844 13.8154 73.1725 13.8154 62.1594C13.8154 52.1475 19.8225 44.138 28.8332 41.1344ZM34.8403 41.1344C39.8463 41.1344 44.8522 36.1285 44.8522 31.1225C44.8522 25.1154 39.8463 21.1107 34.8403 21.1107C28.8332 21.1107 24.8284 25.1154 24.8284 31.1225C24.8284 36.1285 28.8332 41.1344 34.8403 41.1344ZM34.8403 81.182C44.8522 81.182 53.8629 72.1713 53.8629 62.1594C53.8629 51.1463 44.8522 43.1368 34.8403 43.1368C23.8272 43.1368 15.8177 51.1463 15.8177 62.1594C15.8177 72.1713 23.8272 81.182 34.8403 81.182Z" fill="#2557A7"/>
</g>
</g>
<defs>
<clipPath id="clip0">
<rect width="80" height="80" fill="white" transform="translate(0 0.0858154)"/>
</clipPath>
</defs>
</svg>
